<?xml version="1.0" standalone="yes"?>
<!DOCTYPE svg PUBLIC "-//W3C//DTD SVG 1.1//EN"
 "http://www.w3.org/Graphics/SVG/1.1/DTD/svg11.dtd">
<svg xmlns="http://www.w3.org/2000/svg" version="1.1"
  width="100%" height="100%" viewBox="0 0 1024 768"
  style="fill: none; font-family: Helvetica;
 font: Helvetica;
">

<!-- Creator: NGspice -->

<rect x="0" y="0" width="1024" height="768" fill="black" stroke="none"/>
<text stroke="none" fill="white" font-size="16" x="358" y="752">
v-sweep
</text>
<text stroke="none" fill="white" font-size="16" x="10" y="16">
dc1: ********** sim **********
</text>
<path stroke="white" d="M50 720l0 -672"/>
<text stroke="none" fill="white" font-size="16" x="35" y="728">
0.0
</text>
<path stroke="white" stroke-dasharray="1,2" d="M142 720l0 -672"/>
<text stroke="none" fill="white" font-size="16" x="127" y="728">
0.2
</text>
<path stroke="white" stroke-dasharray="1,2" d="M234 720l0 -672"/>
<text stroke="none" fill="white" font-size="16" x="219" y="728">
0.4
</text>
<path stroke="white" stroke-dasharray="1,2" d="M326 720l0 -672"/>
<text stroke="none" fill="white" font-size="16" x="311" y="728">
0.6
</text>
<path stroke="white" stroke-dasharray="1,2" d="M418 720l0 -672"/>
<text stroke="none" fill="white" font-size="16" x="403" y="728">
0.8
</text>
<path stroke="white" stroke-dasharray="1,2" d="M510 720l0 -672"/>
<text stroke="none" fill="white" font-size="16" x="495" y="728">
1.0
</text>
<path stroke="white" stroke-dasharray="1,2" d="M602 720l0 -672"/>
<text stroke="none" fill="white" font-size="16" x="587" y="728">
1.2
</text>
<path stroke="white" stroke-dasharray="1,2" d="M694 720l0 -672"/>
<text stroke="none" fill="white" font-size="16" x="679" y="728">
1.4
</text>
<path stroke="white" stroke-dasharray="1,2" d="M786 720l0 -672"/>
<text stroke="none" fill="white" font-size="16" x="771" y="728">
1.6
</text>
<path stroke="white" stroke-dasharray="1,2" d="M878 720l0 -672"/>
<text stroke="none" fill="white" font-size="16" x="863" y="728">
1.8
</text>
<path stroke="white" stroke-dasharray="1,2" d="M970 720l0 -672"/>
<text stroke="none" fill="white" font-size="16" x="955" y="728">
2.0
</text>
<text stroke="none" fill="white" font-size="16" x="614" y="752">
V
</text>
<path stroke="white" d="M50 720l920 0"/>
<text stroke="none" fill="white" font-size="16" x="18" y="728">
0.0
</text>
<path stroke="white" stroke-dasharray="1,2" d="M50 624l920 0"/>
<text stroke="none" fill="white" font-size="16" x="18" y="632">
0.5
</text>
<path stroke="white" stroke-dasharray="1,2" d="M50 528l920 0"/>
<text stroke="none" fill="white" font-size="16" x="18" y="536">
1.0
</text>
<path stroke="white" stroke-dasharray="1,2" d="M50 432l920 0"/>
<text stroke="none" fill="white" font-size="16" x="18" y="440">
1.5
</text>
<path stroke="white" stroke-dasharray="1,2" d="M50 336l920 0"/>
<text stroke="none" fill="white" font-size="16" x="18" y="344">
2.0
</text>
<path stroke="white" stroke-dasharray="1,2" d="M50 240l920 0"/>
<text stroke="none" fill="white" font-size="16" x="18" y="248">
2.5
</text>
<path stroke="white" stroke-dasharray="1,2" d="M50 144l920 0"/>
<text stroke="none" fill="white" font-size="16" x="18" y="152">
3.0
</text>
<path stroke="white" stroke-dasharray="1,2" d="M50 48l920 0"/>
<text stroke="none" fill="white" font-size="16" x="18" y="56">
3.5
</text>
<text stroke="none" fill="white" font-size="16" x="10" y="32">
mA
</text>
<path stroke="red" d="M460 23l46 0"/>
<text stroke="none" fill="white" font-size="16" x="516" y="32">
-vds#branch
</text>
<path stroke="red" d="M50 720l152 0 4 -1 60 0 5 -1 23 0 4 -1 14 0 5 -1 9 0 5 -1 9 0 4 -1 5 0 5 -1 4 0 5 -1 4 -1 5 0 5 -1 4 -1 5 -1 4 -1 5 0 5 -1 4 -1 5 -2 4 -1 10 -2 4 -2 5 -1 4 -2 5 -1 5 -2 4 -2 5 -1 4 -2 10 -4 4 -2 5 -3 4 -2 5 -2 5 -3 4 -2"/>
<path stroke="red" d="M496 669l5 -3 4 -3 10 -6 4 -3 5 -3 4 -3 5 -3 5 -4 4 -3 5 -4 4 -3 10 -8 4 -4 5 -4 4 -4 10 -8 18 -18 5 -4 4 -5 19 -19 4 -5 5 -5 4 -5 5 -5 5 -6 4 -5 5 -5 4 -6 5 -5 5 -6 4 -5 5 -6 4 -5 10 -12 4 -5 5 -6 4 -6 10 -12 4 -6 5 -6"/>
<path stroke="red" d="M731 435l4 -6 10 -12 4 -7 5 -6 4 -6 5 -7 5 -6 4 -6 5 -7 4 -6 5 -7 5 -6 4 -7 5 -7 4 -6 10 -14 4 -7 5 -6 4 -7 10 -14 4 -7 5 -7 4 -7 10 -14 4 -7 5 -7 4 -8 10 -14 4 -7 5 -8 4 -7 5 -8 5 -7 4 -7 5 -8 4 -7 10 -16 4 -7 5 -8 4 -7"/>
<path stroke="red" d="M942 117l5 -8"/>
</svg>
