<?xml version="1.0" standalone="yes"?>
<!DOCTYPE svg PUBLIC "-//W3C//DTD SVG 1.1//EN"
 "http://www.w3.org/Graphics/SVG/1.1/DTD/svg11.dtd">
<svg xmlns="http://www.w3.org/2000/svg" version="1.1"
  width="100%" height="100%" viewBox="0 0 1024 768"
  style="fill: none; font-family: Helvetica;
 font: Helvetica;
">

<!-- Creator: NGspice -->

<rect x="0" y="0" width="1024" height="768" fill="black" stroke="none"/>
<text stroke="none" fill="white" font-size="16" x="358" y="752">
v-sweep
</text>
<text stroke="none" fill="white" font-size="16" x="10" y="16">
dc2: ********** sim **********
</text>
<path stroke="white" d="M70 720l0 -672"/>
<text stroke="none" fill="white" font-size="16" x="55" y="728">
0.0
</text>
<path stroke="white" stroke-dasharray="1,2" d="M158 720l0 -672"/>
<text stroke="none" fill="white" font-size="16" x="143" y="728">
0.2
</text>
<path stroke="white" stroke-dasharray="1,2" d="M246 720l0 -672"/>
<text stroke="none" fill="white" font-size="16" x="231" y="728">
0.4
</text>
<path stroke="white" stroke-dasharray="1,2" d="M334 720l0 -672"/>
<text stroke="none" fill="white" font-size="16" x="319" y="728">
0.6
</text>
<path stroke="white" stroke-dasharray="1,2" d="M422 720l0 -672"/>
<text stroke="none" fill="white" font-size="16" x="407" y="728">
0.8
</text>
<path stroke="white" stroke-dasharray="1,2" d="M510 720l0 -672"/>
<text stroke="none" fill="white" font-size="16" x="495" y="728">
1.0
</text>
<path stroke="white" stroke-dasharray="1,2" d="M598 720l0 -672"/>
<text stroke="none" fill="white" font-size="16" x="583" y="728">
1.2
</text>
<path stroke="white" stroke-dasharray="1,2" d="M686 720l0 -672"/>
<text stroke="none" fill="white" font-size="16" x="671" y="728">
1.4
</text>
<path stroke="white" stroke-dasharray="1,2" d="M774 720l0 -672"/>
<text stroke="none" fill="white" font-size="16" x="759" y="728">
1.6
</text>
<path stroke="white" stroke-dasharray="1,2" d="M862 720l0 -672"/>
<text stroke="none" fill="white" font-size="16" x="847" y="728">
1.8
</text>
<path stroke="white" stroke-dasharray="1,2" d="M950 720l0 -672"/>
<text stroke="none" fill="white" font-size="16" x="935" y="728">
2.0
</text>
<text stroke="none" fill="white" font-size="16" x="614" y="752">
V
</text>
<path stroke="white" stroke-dasharray="1,2" d="M70 720l880 0"/>
<text stroke="none" fill="white" font-size="16" x="18" y="728">
550.0
</text>
<path stroke="white" stroke-dasharray="1,2" d="M70 636l880 0"/>
<text stroke="none" fill="white" font-size="16" x="18" y="644">
600.0
</text>
<path stroke="white" stroke-dasharray="1,2" d="M70 552l880 0"/>
<text stroke="none" fill="white" font-size="16" x="18" y="560">
650.0
</text>
<path stroke="white" stroke-dasharray="1,2" d="M70 468l880 0"/>
<text stroke="none" fill="white" font-size="16" x="18" y="476">
700.0
</text>
<path stroke="white" stroke-dasharray="1,2" d="M70 384l880 0"/>
<text stroke="none" fill="white" font-size="16" x="18" y="392">
750.0
</text>
<path stroke="white" stroke-dasharray="1,2" d="M70 300l880 0"/>
<text stroke="none" fill="white" font-size="16" x="18" y="308">
800.0
</text>
<path stroke="white" stroke-dasharray="1,2" d="M70 216l880 0"/>
<text stroke="none" fill="white" font-size="16" x="18" y="224">
850.0
</text>
<path stroke="white" stroke-dasharray="1,2" d="M70 132l880 0"/>
<text stroke="none" fill="white" font-size="16" x="18" y="140">
900.0
</text>
<path stroke="white" stroke-dasharray="1,2" d="M70 48l880 0"/>
<text stroke="none" fill="white" font-size="16" x="18" y="56">
950.0
</text>
<text stroke="none" fill="white" font-size="16" x="10" y="32">
mV
</text>
<path stroke="red" d="M440 23l44 0"/>
<text stroke="none" fill="white" font-size="16" x="494" y="32">
@m.xm1.msky130_fd_pr__nfet_01v8[vth]
</text>
<path stroke="red" d="M70 660l13 -13 5 -4 8 -8 5 -4 4 -4 5 -4 8 -8 5 -4 4 -4 5 -4 8 -8 5 -4 4 -4 5 -4 4 -3 4 -4 5 -4 4 -4 5 -3 8 -8 5 -3 4 -4 5 -4 4 -3 4 -4 5 -3 4 -4 5 -3 4 -4 4 -3 5 -4 4 -3 5 -4 4 -3 4 -4 5 -3 4 -3 5 -4 8 -6 5 -4 4 -3 5 -3"/>
<path stroke="red" d="M286 478l4 -4 4 -3 5 -3 4 -3 5 -4 8 -6 5 -3 4 -3 5 -4 8 -6 5 -3 4 -3 5 -3 8 -6 5 -3 4 -3 5 -3 8 -6 5 -3 4 -3 5 -3 8 -6 5 -3 4 -3 5 -3 8 -6 5 -3 4 -3 5 -3 4 -2 4 -3 5 -3 4 -3 5 -3 4 -3 4 -2 5 -3 4 -3 5 -3 4 -2 4 -3 5 -3 4 -3"/>
<path stroke="red" d="M501 331l5 -2 8 -6 5 -3 4 -2 5 -3 4 -3 4 -2 5 -3 4 -3 5 -2 4 -3 4 -2 5 -3 4 -3 5 -2 8 -6 5 -2 4 -3 5 -2 4 -3 4 -2 5 -3 4 -2 5 -3 4 -2 4 -3 5 -2 4 -3 5 -2 4 -3 4 -2 5 -3 4 -2 5 -3 4 -2 4 -3 5 -2 4 -3 5 -2 4 -2 4 -3 5 -2 4 -3"/>
<path stroke="red" d="M699 216l5 -2 4 -2 4 -3 5 -2 4 -3 5 -2 4 -2 4 -3 5 -2 4 -2 5 -3 8 -4 5 -3 4 -2 5 -2 4 -2 4 -3 5 -2 4 -2 5 -3 8 -4 5 -2 4 -3 5 -2 8 -4 5 -3 4 -2 5 -2 8 -4 5 -3 4 -2 5 -2 8 -4 5 -3 4 -2 5 -2 8 -4 5 -2 4 -3 5 -2 8 -4 5 -2 4 -2"/>
<path stroke="red" d="M919 104l5 -2 4 -2"/>
</svg>
